<?xml version="1.0" encoding="utf-8"?>
<!-- Generator: Adobe Illustrator 24.0.0, SVG Export Plug-In . SVG Version: 6.00 Build 0)  -->
<svg version="1.0" id="Layer_1" xmlns="http://www.w3.org/2000/svg" xmlns:xlink="http://www.w3.org/1999/xlink" x="0px" y="0px"
	 viewBox="0 0 250 250" style="enable-background:new 0 0 250 250;" xml:space="preserve">
<style type="text/css">
	.st0{fill:#A83333;}
	.st1{fill:none;stroke:#000000;stroke-width:1.5;stroke-linecap:round;stroke-linejoin:round;stroke-miterlimit:10;}
	.st2{fill:#636363;}
	.st3{fill:none;stroke:#000000;stroke-width:2;stroke-linecap:round;stroke-miterlimit:10;}
	.st4{fill:#FFFFFF;}
	.st5{fill:none;stroke:#000000;stroke-width:1.5;stroke-linecap:round;stroke-miterlimit:10;}
	.st6{fill:#FFFFFF;stroke:#000000;stroke-width:1.5;stroke-linecap:round;stroke-linejoin:round;stroke-miterlimit:10;}
	.st7{fill:none;stroke:#000000;stroke-width:1.2;stroke-linecap:round;stroke-linejoin:round;stroke-miterlimit:10;}
	.st8{stroke:#000000;stroke-width:1.5;stroke-linecap:round;stroke-linejoin:round;stroke-miterlimit:10;}
	.st9{fill:none;stroke:#000000;stroke-width:2;stroke-linejoin:round;stroke-miterlimit:10;}
	.st10{fill:none;stroke:#000000;stroke-linecap:round;stroke-linejoin:round;stroke-miterlimit:10;}
	.st11{fill:none;stroke:#000000;stroke-width:1.5;stroke-miterlimit:10;}
	.st12{stroke:#000000;stroke-width:1.5;stroke-miterlimit:10;}
	.st13{stroke:#000000;stroke-miterlimit:10;}
	.st14{fill:none;stroke:#000000;stroke-miterlimit:10;}
	.st15{fill:#FFFFFF;stroke:#000000;stroke-width:1.5;stroke-miterlimit:10;}
	.st16{fill:none;stroke:#000000;stroke-width:4;stroke-miterlimit:10;}
	.st17{fill:none;stroke:#000000;stroke-width:2;stroke-miterlimit:10;}
	.st18{fill:none;stroke:#000000;stroke-linecap:round;stroke-miterlimit:10;}
	.st19{fill:none;stroke:#000000;stroke-width:1.2;stroke-linecap:round;stroke-miterlimit:10;}
	.st20{fill:none;stroke:#000000;stroke-width:4;stroke-linecap:round;stroke-miterlimit:10;}
	.st21{fill:none;stroke:#000000;stroke-linejoin:round;stroke-miterlimit:10;}
	.st22{fill:none;stroke:#000000;stroke-width:1.5;stroke-linejoin:round;stroke-miterlimit:10;}
</style>
<path class="st0" d="M242,250H8c-4.42,0-8-3.58-8-8V8c0-4.42,3.58-8,8-8h234c4.42,0,8,3.58,8,8v234C250,246.42,246.42,250,242,250z"
	/>
<path class="st4" d="M207,55.43h-22.71l-12.92-28.97c-3.28-7.35-13.13-8.73-18.3-2.57l-18.95,22.57c-2.58-1.05-5.71-1.67-9.1-1.67
	c-3.4,0-6.52,0.63-9.1,1.67L96.96,23.89c-5.18-6.17-15.02-4.79-18.3,2.57L65.74,55.43H43c-9.06,0-16.47,7.41-16.47,16.47v29.42
	c0,10.02,7.34,18.3,16.92,19.88v88.63c0,11.12,9.04,20.16,20.16,20.16h122.8c11.12,0,20.16-9.04,20.16-20.16V121.2
	c9.54-1.57,16.9-9.85,16.9-19.88V71.9C223.47,62.84,216.07,55.43,207,55.43z M110.63,219.21H63.61c-5.17,0-9.37-4.2-9.37-9.37v-88.3
	h56.39V219.21z M110.63,110.74H54.24h-7.5c-5.18,0-9.42-4.24-9.42-9.42V71.9c0-3.09,2.59-5.68,5.68-5.68h67.63V110.74z
	 M195.79,209.84c0,5.17-4.2,9.37-9.37,9.37H139.4v-97.68h56.39V209.84z M212.68,101.32c0,4.03-2.55,7.42-6.11,8.76c0,0,0,0,0,0
	c-1.02,0.38-2.09,0.66-3.24,0.66h-7.55H139.4V66.22H207c3.17,0,5.68,2.59,5.68,5.68V101.32z"/>
</svg>
