<?xml version="1.0" encoding="utf-8"?>
<!-- Generator: Adobe Illustrator 24.0.0, SVG Export Plug-In . SVG Version: 6.00 Build 0)  -->
<svg version="1.0" id="Layer_1" xmlns="http://www.w3.org/2000/svg" xmlns:xlink="http://www.w3.org/1999/xlink" x="0px" y="0px"
	 viewBox="0 0 250 250" style="enable-background:new 0 0 250 250;" xml:space="preserve">
<style type="text/css">
	.st0{fill:#A83333;}
	.st1{fill:none;stroke:#000000;stroke-width:1.5;stroke-linecap:round;stroke-linejoin:round;stroke-miterlimit:10;}
	.st2{fill:#636363;}
	.st3{fill:none;stroke:#000000;stroke-width:2;stroke-linecap:round;stroke-miterlimit:10;}
	.st4{fill:#FFFFFF;}
	.st5{fill:none;stroke:#000000;stroke-width:1.5;stroke-linecap:round;stroke-miterlimit:10;}
	.st6{fill:#FFFFFF;stroke:#000000;stroke-width:1.5;stroke-linecap:round;stroke-linejoin:round;stroke-miterlimit:10;}
	.st7{fill:none;stroke:#000000;stroke-width:1.2;stroke-linecap:round;stroke-linejoin:round;stroke-miterlimit:10;}
	.st8{stroke:#000000;stroke-width:1.5;stroke-linecap:round;stroke-linejoin:round;stroke-miterlimit:10;}
	.st9{fill:none;stroke:#000000;stroke-width:2;stroke-linejoin:round;stroke-miterlimit:10;}
	.st10{fill:none;stroke:#000000;stroke-linecap:round;stroke-linejoin:round;stroke-miterlimit:10;}
	.st11{fill:none;stroke:#000000;stroke-width:1.5;stroke-miterlimit:10;}
	.st12{stroke:#000000;stroke-width:1.5;stroke-miterlimit:10;}
	.st13{stroke:#000000;stroke-miterlimit:10;}
	.st14{fill:none;stroke:#000000;stroke-miterlimit:10;}
	.st15{fill:#FFFFFF;stroke:#000000;stroke-width:1.5;stroke-miterlimit:10;}
	.st16{fill:none;stroke:#000000;stroke-width:4;stroke-miterlimit:10;}
	.st17{fill:none;stroke:#000000;stroke-width:2;stroke-miterlimit:10;}
	.st18{fill:none;stroke:#000000;stroke-linecap:round;stroke-miterlimit:10;}
	.st19{fill:none;stroke:#000000;stroke-width:1.2;stroke-linecap:round;stroke-miterlimit:10;}
	.st20{fill:none;stroke:#000000;stroke-width:4;stroke-linecap:round;stroke-miterlimit:10;}
	.st21{fill:none;stroke:#000000;stroke-linejoin:round;stroke-miterlimit:10;}
	.st22{fill:none;stroke:#000000;stroke-width:1.5;stroke-linejoin:round;stroke-miterlimit:10;}
</style>
<path class="st0" d="M242,250H8c-4.42,0-8-3.58-8-8V8c0-4.42,3.58-8,8-8h234c4.42,0,8,3.58,8,8v234C250,246.42,246.42,250,242,250z"
	/>
<g>
	<g>
		<g>
			<path class="st4" d="M201.77,82.73c-1.66,0-3.14-1.16-3.5-2.84c-0.41-1.93,0.83-3.83,2.77-4.24l22.67-4.78
				c1.92-0.4,3.83,0.83,4.24,2.77c0.41,1.93-0.83,3.83-2.77,4.24l-22.67,4.78C202.26,82.7,202.02,82.73,201.77,82.73z"/>
		</g>
		<g>
			<path class="st4" d="M226.42,106.47h-23.17c-1.98,0-3.58-1.6-3.58-3.58c0-1.98,1.6-3.58,3.58-3.58h23.17
				c1.98,0,3.58,1.6,3.58,3.58C230,104.87,228.4,106.47,226.42,106.47z"/>
		</g>
		<g>
			<path class="st4" d="M224.45,134.99c-0.24,0-0.49-0.02-0.74-0.08l-22.67-4.77c-1.93-0.41-3.17-2.3-2.77-4.24
				c0.41-1.93,2.31-3.18,4.24-2.77l22.67,4.77c1.93,0.41,3.17,2.3,2.77,4.24C227.6,133.83,226.11,134.99,224.45,134.99z"/>
		</g>
	</g>
	<path class="st4" d="M157.46,31.4c-0.14-0.03-0.27-0.03-0.41-0.05c-0.23-0.01-0.44-0.07-0.67-0.07c-0.09,0-0.18,0.03-0.27,0.03
		c-0.17,0.01-0.33,0.03-0.49,0.06c-6.7,0.3-12.37,4.47-16.97,11.16c-19.67,13.21-54.81,34.58-76.19,34.58H37.57
		C27.72,77.12,20,88.44,20,102.89s7.72,25.77,17.57,25.77h21.57v84.68c0,2.96,2.41,5.37,5.37,5.37h39.57c1.77,0,3.43-0.87,4.43-2.33
		c1-1.46,1.22-3.32,0.58-4.97c-0.14-0.37-12.56-33.23-15.57-74.03c16.45,7.43,33.51,18.09,45.17,25.9
		c4.78,6.93,10.68,11.21,17.71,11.21c20.78,0,31.99-36.89,31.99-71.61C188.38,68.79,177.54,32.68,157.46,31.4z M50.2,117.92H37.57
		c-2.72,0-6.83-6-6.83-15.03c0-9.04,4.11-15.04,6.83-15.04H50.2c-2.04,4.21-3.26,9.36-3.26,15.04
		C46.94,108.56,48.16,113.71,50.2,117.92z M96.52,207.98H69.89v-78.53c3.95,0.7,8.14,1.84,12.53,3.39
		C84.16,166.4,92.28,195.04,96.52,207.98z M65.39,118.1c-0.3-0.05-0.56-0.18-0.87-0.18c-2.72,0-6.83-6-6.83-15.03
		c0-9.04,4.11-15.04,6.83-15.04c0.31,0,0.58-0.13,0.87-0.18c19.16-1.29,45.08-14.81,64.92-27c-3.88,12.5-5.91,27.54-5.91,42.21
		c0,14.67,2.03,29.71,5.91,42.21C110.47,132.92,84.55,119.39,65.39,118.1z M156.39,163.76c-7.08,0-16.37-14.77-19.85-39.87
		c2.11,5.05,4.96,8.19,8.12,8.19c6.48,0,11.73-13.07,11.73-29.18s-5.25-29.18-11.73-29.18c-3.16,0-6.01,3.14-8.12,8.19
		c3.48-25.1,12.77-39.87,19.85-39.87c8.88,0,21.25,23.16,21.25,60.87S165.26,163.76,156.39,163.76z"/>
</g>
</svg>
