<?xml version="1.0" encoding="utf-8"?>
<!-- Generator: Adobe Illustrator 24.0.0, SVG Export Plug-In . SVG Version: 6.00 Build 0)  -->
<svg version="1.0" id="Layer_1" xmlns="http://www.w3.org/2000/svg" xmlns:xlink="http://www.w3.org/1999/xlink" x="0px" y="0px"
	 viewBox="0 0 250 250" style="enable-background:new 0 0 250 250;" xml:space="preserve">
<style type="text/css">
	.st0{fill:#A83333;}
	.st1{fill:none;stroke:#000000;stroke-width:1.5;stroke-linecap:round;stroke-linejoin:round;stroke-miterlimit:10;}
	.st2{fill:#636363;}
	.st3{fill:none;stroke:#000000;stroke-width:2;stroke-linecap:round;stroke-miterlimit:10;}
	.st4{fill:#FFFFFF;}
	.st5{fill:none;stroke:#000000;stroke-width:1.5;stroke-linecap:round;stroke-miterlimit:10;}
	.st6{fill:#FFFFFF;stroke:#000000;stroke-width:1.5;stroke-linecap:round;stroke-linejoin:round;stroke-miterlimit:10;}
	.st7{fill:none;stroke:#000000;stroke-width:1.2;stroke-linecap:round;stroke-linejoin:round;stroke-miterlimit:10;}
	.st8{stroke:#000000;stroke-width:1.5;stroke-linecap:round;stroke-linejoin:round;stroke-miterlimit:10;}
	.st9{fill:none;stroke:#000000;stroke-width:2;stroke-linejoin:round;stroke-miterlimit:10;}
	.st10{fill:none;stroke:#000000;stroke-linecap:round;stroke-linejoin:round;stroke-miterlimit:10;}
	.st11{fill:none;stroke:#000000;stroke-width:1.5;stroke-miterlimit:10;}
	.st12{stroke:#000000;stroke-width:1.5;stroke-miterlimit:10;}
	.st13{stroke:#000000;stroke-miterlimit:10;}
	.st14{fill:none;stroke:#000000;stroke-miterlimit:10;}
	.st15{fill:#FFFFFF;stroke:#000000;stroke-width:1.5;stroke-miterlimit:10;}
	.st16{fill:none;stroke:#000000;stroke-width:4;stroke-miterlimit:10;}
	.st17{fill:none;stroke:#000000;stroke-width:2;stroke-miterlimit:10;}
	.st18{fill:none;stroke:#000000;stroke-linecap:round;stroke-miterlimit:10;}
	.st19{fill:none;stroke:#000000;stroke-width:1.2;stroke-linecap:round;stroke-miterlimit:10;}
	.st20{fill:none;stroke:#000000;stroke-width:4;stroke-linecap:round;stroke-miterlimit:10;}
	.st21{fill:none;stroke:#000000;stroke-linejoin:round;stroke-miterlimit:10;}
	.st22{fill:none;stroke:#000000;stroke-width:1.5;stroke-linejoin:round;stroke-miterlimit:10;}
</style>
<path d="M190.17,68.8h-10.85h-9.07v-7.45h19.63c10.14,0,18.4-8.25,18.4-18.4V39.3c0-10.14-8.25-18.4-18.4-18.4H56.29
	c-10.14,0-18.4,8.25-18.4,18.4v3.66c0,10.14,8.25,18.4,18.4,18.4h20.17v7.45h-5.78H59.83H20v54.72c0,9.15,6.69,16.96,16.08,20.13
	v64.63c0,11.48,10.89,20.81,24.28,20.81H185.8c13.39,0,24.28-9.34,24.28-20.81v-63.61c11.37-2.13,19.92-10.79,19.92-21.15V68.8
	H190.17z M87.31,61.35h72.1v7.45h-9.07h-10.85h-28.98H99.66H87.31V61.35z M142.4,78.36v43.08c0,7.84-7.79,14.2-17.4,14.2
	c-9.61,0-17.4-6.36-17.4-14.2V78.36H142.4z M27.93,121.44V78.36h34.81v43.08c0,7.84-7.79,14.2-17.4,14.2S27.93,129.28,27.93,121.44z
	 M142.94,215.74h-35.88v-35.97c0-5.6,0-14.06,17.94-14.06s17.94,8.46,17.94,14.06V215.74z M185.8,218.25h-32.02v-38.48
	c0-16.53-9.69-24.91-28.79-24.91s-28.79,8.38-28.79,24.91v38.48H60.36c-7.28,0-13.43-4.56-13.43-9.96v-63.25
	c7.44-0.41,14-3.52,18.32-8.27c4.64,5.09,11.8,8.44,19.91,8.44c8.12,0,15.28-3.34,19.92-8.44c4.64,5.09,11.8,8.44,19.92,8.44
	c8.12,0,15.28-3.34,19.92-8.44c4.64,5.09,11.8,8.44,19.92,8.44c8.12,0,15.28-3.34,19.92-8.44c3.57,3.92,8.65,6.76,14.49,7.88v63.64
	C199.24,213.69,193.09,218.25,185.8,218.25z M222.06,121.44c0,7.84-7.79,14.2-17.4,14.2c-9.61,0-17.4-6.36-17.4-14.2V78.36h34.81
	V121.44z"/>
</svg>
